<?xml version="1.0" encoding="UTF-8" standalone="no"?>
<svg width="46px" height="47px" viewBox="0 0 46 47" version="1.1" xmlns="http://www.w3.org/2000/svg" xmlns:xlink="http://www.w3.org/1999/xlink" xmlns:sketch="http://www.bohemiancoding.com/sketch/ns">
    <!-- Generator: Sketch 3.4.4 (17249) - http://www.bohemiancoding.com/sketch -->
    <title>Page 1</title>
    <desc>Created with Sketch.</desc>
    <defs></defs>
    <g id="FINAL" stroke="none" stroke-width="1" fill="none" fill-rule="evenodd" sketch:type="MSPage">
        <g id="Desktop-HD-Copy-13" sketch:type="MSArtboardGroup" transform="translate(-571.000000, -618.000000)" fill="#4A4A4A">
            <g id="Page-1" sketch:type="MSLayerGroup" transform="translate(571.000000, 618.000000)">
                <path d="M23.7104444,44.4147436 L23.7104444,23.21518 C23.7104444,22.7434709 23.3296667,22.3606345 22.8585926,22.3606345 C22.3875185,22.3606345 22.0067407,22.7434709 22.0067407,23.21518 L22.0067407,44.4147436 C10.7358889,43.9643982 1.7037037,34.6301982 1.7037037,23.21518 C1.7037037,11.5138891 11.1941852,1.99425273 22.8585926,1.99425273 C34.523,1.99425273 44.0126296,11.5138891 44.0126296,23.21518 C44.0126296,34.6301982 34.9812963,43.9643982 23.7104444,44.4147436 M22.8585926,0.285161818 C10.2545926,0.285161818 0,10.5713255 0,23.21518 C0,35.8590345 10.2545926,46.1451982 22.8585926,46.1451982 C35.4625926,46.1451982 45.7163333,35.8590345 45.7163333,23.21518 C45.7163333,10.5713255 35.4625926,0.285161818 22.8585926,0.285161818" id="Fill-1" sketch:type="MSShapeGroup"></path>
                <path d="M22.8585926,12.2924655 C16.2039259,12.2924655 10.7904074,17.7231018 10.7904074,24.3988109 C10.7904074,28.0212291 12.3884815,31.4240291 15.1748889,33.7338655 C15.5377778,34.0346655 16.0752963,33.9825382 16.3742963,33.6202109 C16.6741481,33.2561745 16.623037,32.7169564 16.2601481,32.4161564 C13.8664444,30.4319018 12.4941111,27.5093564 12.4941111,24.3988109 C12.4941111,18.6656655 17.1435185,14.0015564 22.8585926,14.0015564 C28.5728148,14.0015564 33.2222222,18.6656655 33.2222222,24.3988109 C33.2222222,27.6298473 31.7621481,30.6224655 29.2176667,32.6092836 C28.8462593,32.8989745 28.7798148,33.4356291 29.0685926,33.8082109 C29.2364074,34.0252655 29.4877037,34.1380655 29.7415556,34.1380655 C29.9247037,34.1380655 30.1087037,34.0791018 30.2637407,33.9577564 C33.2264815,31.6445018 34.9259259,28.16052 34.9259259,24.3988109 C34.9259259,17.7231018 29.5132593,12.2924655 22.8585926,12.2924655" id="Fill-3" sketch:type="MSShapeGroup"></path>
            </g>
        </g>
    </g>
</svg>