<svg width="45" height="45" viewBox="0 0 45 45" xmlns="http://www.w3.org/2000/svg"><title>Page 1</title><path d="M22.5 43.324c-7.91 0-14.802-4.433-18.326-10.945h36.652C37.302 38.89 30.41 43.323 22.5 43.323zm0-41.647c7.707 0 14.445 4.212 18.045 10.452H4.455C8.055 5.89 14.793 1.676 22.5 1.676zM1.698 21.662c.112-2.794.776-5.448 1.888-7.856h37.828c1.112 2.408 1.776 5.062 1.888 7.856H1.698zm0 1.677h41.604c-.104 2.604-.686 5.087-1.665 7.362H3.362c-.978-2.275-1.56-4.758-1.664-7.363zM22.5 0C10.093 0 0 10.094 0 22.5 0 34.908 10.093 45 22.5 45S45 34.908 45 22.5C45 10.095 34.907 0 22.5 0z" fill="#4A4A4A" fill-rule="evenodd"/></svg>