<?xml version="1.0" encoding="UTF-8" standalone="no"?>
<svg width="45px" height="45px" viewBox="0 0 45 45" version="1.1" xmlns="http://www.w3.org/2000/svg" xmlns:xlink="http://www.w3.org/1999/xlink" xmlns:sketch="http://www.bohemiancoding.com/sketch/ns">
    <!-- Generator: Sketch 3.4.4 (17249) - http://www.bohemiancoding.com/sketch -->
    <title>Page 1</title>
    <desc>Created with Sketch.</desc>
    <defs></defs>
    <g id="FINAL" stroke="none" stroke-width="1" fill="none" fill-rule="evenodd" sketch:type="MSPage">
        <g id="Desktop-HD-Copy-13" sketch:type="MSArtboardGroup" transform="translate(-257.000000, -618.000000)" fill="#4A4A4A">
            <path d="M279.5,661.323818 C271.590243,661.323818 264.697611,656.890564 261.174151,650.37862 L297.825849,650.37862 C294.302389,656.890564 287.409757,661.323818 279.5,661.323818 L279.5,661.323818 Z M279.5,619.677058 C287.206835,619.677058 293.945179,623.888943 297.544945,630.129207 L261.455055,630.129207 C265.055659,623.888943 271.793165,619.677058 279.5,619.677058 L279.5,619.677058 Z M258.698002,639.662337 C258.809526,636.867551 259.474472,634.214475 260.586349,631.806246 L298.413651,631.806246 C299.525528,634.214475 300.190474,636.867551 300.301998,639.662337 L258.698002,639.662337 Z M258.698002,641.339377 L300.301998,641.339377 C300.198021,643.943819 299.616088,646.426676 298.636697,648.70158 L260.362464,648.70158 C259.383912,646.426676 258.801979,643.943819 258.698002,641.339377 L258.698002,641.339377 Z M279.5,618.000019 C267.093262,618.000019 257,628.094119 257,640.500857 C257,652.906757 267.093262,663.000857 279.5,663.000857 C291.906738,663.000857 302,652.906757 302,640.500857 C302,628.094119 291.906738,618.000019 279.5,618.000019 L279.5,618.000019 Z" id="Page-1" sketch:type="MSShapeGroup"></path>
        </g>
    </g>
</svg>