<svg width="46" height="46" viewBox="0 0 46 46" xmlns="http://www.w3.org/2000/svg" xmlns:xlink="http://www.w3.org/1999/xlink"><title>Page 1</title><defs><path id="a" d="M0 .284h45.72V46H0"/></defs><g fill="none" fill-rule="evenodd"><path d="M24.06 18.712c-2.194 0-3.974 1.78-3.974 3.975 0 2.196 1.78 3.975 3.975 3.975 2.196 0 3.977-1.78 3.977-3.975 0-2.196-1.78-3.975-3.976-3.975" fill="#4A4A4A"/><g><mask id="b" fill="#fff"><use xlink:href="#a"/></mask><path d="M44.015 19.667l-.003 3.475c0 11.665-9.49 21.154-21.154 21.154-11.665 0-21.154-9.49-21.154-21.154 0-11.665 9.49-21.155 21.154-21.155 2.96 0 7.33.02 11.57.038 3.57.015 7.05.03 9.52.033.076 11.36.072 13.994.067 17.61M45.645 1.2L45.64.356h-.847c-2.48 0-6.362-.017-10.36-.034C30.192.303 25.82.285 22.86.285 10.254.284 0 10.538 0 23.142 0 35.745 10.254 46 22.858 46c12.604 0 22.857-10.255 22.857-22.858l.004-3.473c.005-3.707.008-6.385-.075-18.47" fill="#4A4A4A" mask="url(#b)"/></g></g></svg>