<svg width="46" height="47" viewBox="0 0 46 47" xmlns="http://www.w3.org/2000/svg"><title>Page 1</title><g fill="#4A4A4A" fill-rule="evenodd"><path d="M23.71 44.415v-21.2c0-.472-.38-.854-.85-.854-.472 0-.853.383-.853.855v21.2c-11.27-.45-20.303-9.785-20.303-21.2 0-11.7 9.49-21.22 21.155-21.22 11.663 0 21.153 9.52 21.153 21.22 0 11.415-9.032 20.75-20.303 21.2M22.86.285C10.254.285 0 10.57 0 23.215s10.255 22.93 22.86 22.93c12.603 0 22.856-10.286 22.856-22.93S35.463.285 22.86.285"/><path d="M22.86 12.292c-6.656 0-12.07 5.43-12.07 12.107 0 3.62 1.598 7.024 4.385 9.334.363.3.9.25 1.2-.114.3-.364.248-.903-.115-1.204-2.394-1.984-3.766-4.907-3.766-8.017C12.494 18.665 17.144 14 22.86 14c5.713 0 10.362 4.664 10.362 10.397 0 3.23-1.46 6.222-4.004 8.21-.372.29-.438.826-.15 1.198.168.217.42.33.674.33.183 0 .367-.06.522-.18 2.962-2.313 4.662-5.797 4.662-9.56 0-6.675-5.413-12.106-12.067-12.106"/></g></svg>