<svg width="295" height="293" viewBox="0 0 295 293" xmlns="http://www.w3.org/2000/svg"><title>Page 1</title><defs><linearGradient x1="65.879%" y1="0%" x2="-.705%" y2="106.383%" id="a"><stop stop-color="#FFA900" offset="0%"/><stop stop-color="#2CF3CC" offset="54.898%"/><stop stop-color="#10416F" offset="100%"/></linearGradient></defs><path d="M233.608 188.476l40.823-40.77L233 106.33l9.886-9.876 50.71 50.644-50.71 50.644-9.278-9.266zm-10.64-10.627l30.788-30.752-30.79-30.75 8.89-8.877 40.287 40.236-39.678 39.628-9.498-9.485zm-1.533 20.5l-9.498-9.486 9.886-9.873 9.498 9.486-9.885 9.873zm-11.217-11.202c2.635-4.106 4.875-8.485 6.67-13.087l3.792 3.79-9.886 9.872-.576-.574zm-2.46 3.604c.532-.73 1.06-1.462 1.567-2.21l.324.322-1.892 1.888zm-7.51 6.48l-6.224-6.216c2.9-3.068 5.504-6.417 7.76-10.008l6.37 6.363c-2.345 3.52-4.998 6.812-7.905 9.863zm-4.238 4.116c-2.61 2.33-5.388 4.473-8.314 6.41l-6.37-6.364c3.934-2.45 7.583-5.317 10.888-8.538l6.15 6.14-2.354 2.352zm2.462 19.457l-8.502 8.492-9.83-9.817 8.504-8.49 9.828 9.815zm0 19.268l-50.708 50.643-50.71-50.643 8.503-8.492 42.207 42.153 42.206-42.152 8.502 8.493zM97.054 220.805l9.57-9.555 8.5 8.49-9.567 9.557-8.503-8.492zm.28-21.242l6.225-6.22c3.213 3.066 6.74 5.806 10.54 8.156l-6.374 6.362c-3.717-2.448-7.193-5.23-10.392-8.3zm-1.78-1.763c-2.93-3.01-5.61-6.263-7.987-9.74l6.362-6.352c2.29 3.547 4.92 6.854 7.85 9.875l-6.227 6.217zM80.29 174.51l6.847-6.838c1.512 4.452 3.487 8.692 5.897 12.643l-6.373 6.365c-2.488-3.825-4.628-7.896-6.37-12.17zm5.192 13.348l-9.278-9.266 2.84-2.837c1.777 4.247 3.946 8.287 6.448 12.093l-.01.01zm-10.033 10.02l-9.28-9.266 8.89-8.878L84.34 189l-8.89 8.878zm-50.71-50.644l39.678-39.627 9.498 9.485-30.79 30.75 30.79 30.75-8.888 8.878-40.29-40.236zm29.256 51.25l-50.71-50.643 50.71-50.64 9.278 9.265-40.822 40.77 41.432 41.377-9.888 9.873zM75.45 96.59l9.497 9.487-9.886 9.873-9.5-9.485 9.89-9.875zm11.21 11.2l6.374 6.362c-2.573 4.22-4.66 8.767-6.204 13.552l-6.884-6.874c1.803-4.592 4.058-8.957 6.715-13.04zm2.55-3.687l6.914-6.904 5.675 5.666c-2.938 3.025-5.576 6.34-7.87 9.896l-6.363-6.354c.534-.778 1.08-1.547 1.644-2.305zM99.78 92.66c2.277-1.99 4.666-3.858 7.178-5.557l6.37 6.36c-3.727 2.38-7.194 5.13-10.34 8.207l-6.114-6.104 2.907-2.905zm-3.514-18.52l9.498-9.486 9.886 9.875-9.498 9.484-9.886-9.875zm.608-20.647l50.71-50.644 50.71 50.643-9.498 9.486-41.822-41.767-41.21 41.157-8.89-8.877zM197.686 74.14l-9.28 9.267-8.888-8.878 9.278-9.267 8.89 8.876zm-2.904 17.917l3.512 3.51-6.067 6.056c-3.36-3.277-7.077-6.19-11.09-8.67l6.37-6.364c2.543 1.67 4.97 3.5 7.275 5.467zm13.742 15.614l-6.372 6.366c-2.37-3.867-5.15-7.453-8.26-10.72l6.225-6.22c3.117 3.253 5.933 6.79 8.407 10.575zm1.733-1.73l-.563.564c-.844-1.278-1.716-2.537-2.637-3.76l3.2 3.197zm1.145 1.143l9.278 9.266-3.87 3.863c-1.698-4.316-3.782-8.437-6.222-12.32l.814-.81zm10.53 40.15c0-8.908-1.584-17.455-4.48-25.377l4.37-4.365L251.47 147.1l-29.647 29.61-4.3-4.297c2.848-7.864 4.41-16.34 4.41-25.176zm-12.714 16.883c1.48-5.38 2.287-11.038 2.287-16.882 0-5.92-.83-11.65-2.346-17.094l7.018-7.01c2.67 7.546 4.136 15.655 4.136 24.104 0 8.374-1.442 16.412-4.068 23.903l-7.028-7.02zm-.508 1.78l6.93 6.92c-1.752 4.634-3.97 9.037-6.59 13.164l-6.402-6.392c2.53-4.272 4.58-8.858 6.062-13.693zm-13.722 6.042c2.38-4.536 4.13-9.45 5.124-14.632l7.29 7.282c-1.423 4.88-3.428 9.51-5.938 13.818l-6.476-6.468zm-8.335 11.716c2.897-3.092 5.426-6.527 7.528-10.238l6.432 6.423c-2.234 3.608-4.83 6.964-7.732 10.034l-6.227-6.22zM173.718 193.8c4.066-2.284 7.804-5.08 11.126-8.304l6.226 6.22c-3.306 3.22-6.963 6.08-10.916 8.51l-6.436-6.427zm1.367 20.63l-6.84-6.83c4.085-1.397 7.985-3.19 11.653-5.346l6.405 6.398c-3.547 2.236-7.294 4.175-11.218 5.78zm1.247 1.244c3.896-1.634 7.615-3.607 11.14-5.854l.028.028-8.503 8.49-2.665-2.664zm-28.83 36.403l31.495-31.455 9.83 9.817-41.063 41.01-41.064-41.01 9.568-9.558 31.235 31.195zm-28.38-36.327l-2.854 2.848-8.502-8.49.183-.184c3.535 2.24 7.265 4.2 11.17 5.826zm-3.59-13.4c3.678 2.146 7.588 3.93 11.683 5.315l-6.848 6.84c-3.932-1.594-7.692-3.522-11.247-5.75l6.412-6.404zm-4.603-16.366c3.238 3.062 6.857 5.728 10.782 7.91l-6.444 6.436c-3.814-2.326-7.348-5.063-10.565-8.127l6.226-6.22zm-9.43-11.84c2.148 3.66 4.72 7.04 7.65 10.08l-6.226 6.217c-2.93-3.022-5.553-6.338-7.826-9.902l6.402-6.393zm-5.934-14.89c1.1 4.75 2.82 9.266 5.098 13.442l-6.447 6.438c-2.39-3.978-4.345-8.246-5.804-12.735l7.153-7.146zm5.1-37.48c-2.438 4.463-4.248 9.312-5.328 14.427l-7.224-7.214c1.486-4.826 3.55-9.403 6.103-13.653l6.45 6.44zm8.503-11.55c-2.94 3.045-5.517 6.432-7.67 10.1l-6.402-6.395c2.278-3.57 4.908-6.895 7.845-9.922l6.226 6.217zm11.738-9.19c-3.844 2.23-7.388 4.915-10.552 7.996l-6.226-6.22c3.15-3.075 6.626-5.818 10.367-8.178l6.41 6.403zm-.022-21.276l6.87 6.862c-4.59 1.505-8.958 3.507-13.028 5.96l-6.38-6.374c3.938-2.536 8.132-4.7 12.538-6.448zm-1.246-1.246c-4.134 1.687-8.08 3.735-11.804 6.105l8.96-8.946 2.844 2.842zm27.944-35.874l-30.79 30.75-9.886-9.876 40.066-40.015 40.678 40.624-9.277 9.267-30.79-30.75zm27.97 35.848l2.82-2.815 8.792 8.78c-3.67-2.31-7.55-4.31-11.61-5.964zm4.147 13.615c-3.852-2.243-7.957-4.097-12.265-5.504l6.873-6.864c4.134 1.635 8.083 3.633 11.806 5.964L179.7 92.1zm5.157 16.885c-3.38-3.283-7.186-6.124-11.337-8.428l6.446-6.437c4.03 2.46 7.754 5.368 11.117 8.646l-6.226 6.22zm9.668 12.666c-2.195-3.997-4.896-7.68-8.003-10.976l6.226-6.217c3.112 3.27 5.88 6.87 8.226 10.755l-6.45 6.44zm-2.347 25.448l6.805-6.796c.306 2.27.48 4.58.48 6.932 0 2.27-.165 4.5-.45 6.692l-6.835-6.828zm-5 17.04c2.157-5.015 3.378-10.52 3.46-16.295l8.08 8.072c-.892 5.252-2.58 10.233-4.932 14.823l-6.61-6.6zm-7.893 12.157c2.887-3.136 5.318-6.7 7.18-10.584l6.532 6.524c-2.07 3.733-4.592 7.182-7.486 10.28l-6.225-6.22zm-13.294 9.786c4.26-2.015 8.13-4.71 11.485-7.944l6.226 6.218c-3.325 3.226-7.076 6.014-11.166 8.262l-6.543-6.535zm-6.162 13.114c4.364-1.022 8.523-2.576 12.403-4.595l6.484 6.473c-3.694 2.136-7.625 3.903-11.746 5.252l-7.14-7.13zm-36.624-4.505c3.896 2.007 8.068 3.548 12.445 4.554l-7.16 7.148c-4.13-1.337-8.07-3.096-11.774-5.224l6.488-6.48zm-4.906-16.066c3.283 3.06 7.04 5.615 11.156 7.54l-6.558 6.548c-3.95-2.15-7.58-4.808-10.824-7.87l6.226-6.218zm-9.116-12.15c1.926 3.824 4.406 7.32 7.337 10.39l-6.227 6.217c-2.93-3.04-5.488-6.436-7.61-10.118l6.5-6.487zm-4.466-16.358c.35 5.25 1.65 10.24 3.727 14.813l-6.58 6.567c-2.25-4.218-3.936-8.78-4.95-13.59l7.803-7.79zm-.094-2.357l.005.16-8.07 8.06c-.49-2.844-.757-5.763-.757-8.746 0-2.62.2-5.194.578-7.71l8.244 8.235zm3.82-18.22c-2.228 4.905-3.563 10.294-3.79 15.965l-7.935-7.925c.984-5.182 2.737-10.094 5.147-14.61l6.58 6.57zm8.096-11.955c-2.94 3.073-5.427 6.576-7.356 10.41l-6.498-6.49c2.126-3.687 4.69-7.09 7.627-10.138l6.228 6.218zm12.06-8.87c-4.02 1.99-7.68 4.588-10.873 7.675l-6.225-6.22c3.167-3.078 6.725-5.755 10.592-7.952l6.506 6.497zm7.64-13.627c-4.906 1.07-9.566 2.804-13.87 5.12l-6.456-6.447c4.097-2.43 8.49-4.417 13.12-5.867l7.205 7.195zm35.79 4.676c-4.085-2.1-8.47-3.697-13.08-4.693l7.21-7.2c4.347 1.355 8.48 3.19 12.36 5.413l-6.49 6.48zm5.46 16.58c-3.413-3.292-7.364-6.025-11.71-8.054l6.558-6.55c4.175 2.27 7.996 5.104 11.378 8.385l-6.226 6.22zm9.272 13.064c-1.925-4.195-4.502-8.032-7.607-11.374l6.225-6.217c3.107 3.3 5.79 7.002 7.953 11.028l-6.57 6.563zm.693 1.59l6.655-6.644c2.154 4.348 3.71 9.04 4.57 13.97l-8.048 8.036c-.11-5.425-1.226-10.603-3.177-15.36zM179 155.97c.777-2.785 1.225-5.706 1.225-8.736 0-2.76-.383-5.425-1.034-7.985l7.016-7.005c1.818 4.65 2.828 9.703 2.828 14.99 0 5.543-1.105 10.832-3.094 15.666l-6.94-6.93zm-7.116 12.934c2.89-3.222 5.146-7.01 6.575-11.188l6.782 6.773c-1.81 3.922-4.212 7.517-7.1 10.663l-6.258-6.25zm-13.908 9.174c4.578-1.536 8.696-4.056 12.117-7.314l6.24 6.23c-3.362 3.236-7.267 5.906-11.565 7.867l-6.792-6.782zm-7.275 12c4.834-.342 9.452-1.474 13.716-3.285l6.615 6.605c-3.925 1.994-8.132 3.506-12.55 4.45l-7.78-7.77zm-13.167 9.567c3.272.627 6.645.968 10.098.968 3.532 0 6.98-.353 10.322-1.008l7.272 7.262c-5.583 1.645-11.484 2.545-17.593 2.545-6.034 0-11.863-.88-17.387-2.486l7.29-7.28zm-6.5-12.774c4.284 1.797 8.92 2.91 13.774 3.226l-7.81 7.8c-4.433-.924-8.653-2.427-12.592-4.407l6.627-6.62zm-5.34-15.63c3.366 3.07 7.36 5.455 11.785 6.91l-6.803 6.793c-4.152-1.87-7.942-4.398-11.234-7.46l6.253-6.243zm-8.582-12.684c1.53 4.097 3.852 7.8 6.796 10.93l-6.244 6.235c-2.93-3.073-5.4-6.59-7.28-10.446l6.73-6.718zm6.813-33.593c-2.95 3.133-5.28 6.844-6.812 10.95l-6.728-6.72c1.884-3.864 4.36-7.387 7.3-10.466l6.24 6.236zm12.63-8.304c-4.31 1.562-8.2 3.99-11.446 7.1l-6.238-6.228c3.195-3.09 6.88-5.673 10.933-7.614l6.75 6.74zm8.932-12.337c-5.437.268-10.603 1.557-15.33 3.663l-6.586-6.58c4.352-2.286 9.064-3.978 14.033-4.955l7.882 7.873zm11.548-9.623c-3.053-.544-6.193-.845-9.402-.845-3.236 0-6.4.305-9.48.858l-7.34-7.33c5.353-1.505 10.992-2.325 16.82-2.325 5.805 0 11.417.814 16.75 2.303l-7.347 7.34zm7.163 12.886c-4.502-1.884-9.388-3.024-14.508-3.265l7.892-7.882c4.67.91 9.113 2.45 13.246 4.526l-6.63 6.622zm5.91 16.13c-3.48-3.317-7.682-5.88-12.356-7.41l6.805-6.795c4.388 1.972 8.37 4.683 11.79 7.977l-6.24 6.23zm1.65 1.705l6.253-6.244c3.105 3.352 5.66 7.218 7.527 11.453l-6.824 6.813c-1.43-4.517-3.845-8.59-6.957-12.022zm-1.032 22.286l7.14-7.132c.475 2.148.743 4.372.743 6.66 0 2.56-.346 5.032-.936 7.41l-6.946-6.938zm-6.21 13.84c2.934-3.447 4.82-7.796 5.196-12.57l7.49 7.482c-1.328 4.238-3.57 8.065-6.458 11.306l-6.228-6.22zm-15.332 7.75c5.218-.364 9.935-2.532 13.542-5.892l6.225 6.217c-3.434 3.266-7.6 5.767-12.242 7.19l-7.526-7.515zm-16.12-5.416c3.594 3.14 8.203 5.132 13.27 5.428l-7.568 7.557c-4.493-1.344-8.542-3.693-11.927-6.767l6.225-6.218zm-7.405-13.86c.588 4.635 2.613 8.817 5.618 12.106l-6.227 6.218c-2.947-3.144-5.24-6.892-6.68-11.046l7.29-7.28zm-.16-3.448c-.008.222-.034.44-.034.662 0 .224.026.44.033.662l-7.672 7.662c-.743-2.653-1.17-5.437-1.17-8.324 0-2.887.427-5.67 1.17-8.323l7.672 7.662zm5.797-14.25c-3.015 3.29-5.048 7.483-5.637 12.127l-7.288-7.28c1.44-4.163 3.74-7.92 6.697-11.067l6.227 6.22zm13.854-7.078c-4.88.546-9.27 2.686-12.67 5.876l-6.23-6.217c3.262-3.115 7.194-5.523 11.563-6.987l7.338 7.328zm17.59 5.833c-3.676-3.43-8.51-5.617-13.85-5.92l7.573-7.562c4.747 1.412 9.007 3.936 12.502 7.263l-6.225 6.22zm1.65 1.706l6.224-6.22c3.12 3.456 5.472 7.602 6.786 12.195l-7.643 7.63c-.197-5.19-2.18-9.924-5.368-13.605zm-7.288 21.355c1.42-1.938 2.272-4.32 2.272-6.904 0-2.65-.897-5.092-2.39-7.06l6.26-6.25c3.073 3.587 4.94 8.23 4.94 13.31 0 5.01-1.814 9.602-4.81 13.168l-6.272-6.264zm-7.05-7.04l5.78-5.77c1.205 1.664 1.925 3.7 1.925 5.906 0 2.137-.673 4.117-1.81 5.752l-5.894-5.888zm-1.92 1.733l6.08 6.072c-1.77 1.52-4.067 2.443-6.58 2.443-2.255 0-4.336-.75-6.02-2.002l6.52-6.512zm-7.14-9.208c1.78-1.55 4.098-2.5 6.64-2.5 2.52 0 4.82.93 6.594 2.457l-6.535 6.525-.187-.186-.105.102-6.408-6.4zm5.216 7.592l-6.415 6.407c-1.426-1.742-2.283-3.965-2.283-6.386 0-2.43.864-4.664 2.302-6.41l6.396 6.39zm-6.63-29.82c2.573-.693 5.265-1.096 8.055-1.096 2.416 0 4.755.303 7.013.828l-7.67 7.657-7.397-7.39zm7.398 9.673l.343-.34c.105-.002.21-.017.314-.017 5.394 0 10.293 2.102 13.963 5.51l-6.226 6.216c-2.068-1.817-4.77-2.928-7.736-2.928-2.988 0-5.71 1.13-7.784 2.972l-6.227-6.218c3.454-3.225 8.012-5.267 13.045-5.503l.31.307zm-19.83 18.868c.304-4.788 2.25-9.127 5.292-12.472l6.228 6.22c-1.728 2.04-2.774 4.675-2.774 7.55 0 2.868 1.038 5.493 2.754 7.533l-6.227 6.218c-3.03-3.342-4.97-7.673-5.272-12.45l1.3-1.3-1.3-1.3zm20.62 24.226l7.125 7.118c-2.334.563-4.755.894-7.26.894-2.427 0-4.78-.31-7.046-.84l7.18-7.17zm-.133-2.403c-5.13 0-9.82-1.9-13.424-5.02l6.25-6.24c1.986 1.537 4.472 2.463 7.175 2.463 2.96 0 5.657-1.107 7.724-2.916l6.226 6.218c-3.668 3.4-8.563 5.495-13.95 5.495zm-8.088-71.652c2.636-.415 5.338-.635 8.09-.635 2.723 0 5.397.214 8.01.62l-8.058 8.047-8.042-8.032zm8.042 10.316l.526-.524c5.236.06 10.238 1.097 14.84 2.934l-6.98 6.972c-2.668-.708-5.453-1.12-8.34-1.12-3.262 0-6.406.493-9.38 1.388l-6.872-6.862c4.827-2.066 10.126-3.234 15.684-3.31l.522.523zm8.975 91.794c-2.904.505-5.883.783-8.93.783-2.967 0-5.87-.263-8.703-.743l8.08-8.07c.208.003.414.016.624.016.297 0 .588-.016.882-.023l8.047 8.037zm-8.796-11.07l-1.41 1.408c-4.958-.152-9.7-1.174-14.075-2.927l6.976-6.967c2.678.712 5.475 1.13 8.375 1.13 2.976 0 5.845-.435 8.585-1.185l6.957 6.948c-4.353 1.768-9.07 2.815-14.006 2.996l-1.402-1.402zM106.23 147.08c.022-5.796 1.248-11.312 3.434-16.32l6.834 6.827c-.95 3.05-1.463 6.29-1.463 9.647 0 3.358.513 6.6 1.464 9.65l-6.836 6.824c-2.037-4.664-3.23-9.772-3.403-15.135l.733-.732-.762-.76zm15.05-69.214l-3.34-3.337 29.644-29.608L177.23 74.53l-3.315 3.31c-8.176-3.1-17.032-4.812-26.284-4.812-9.277 0-18.155 1.722-26.35 4.838zm26.35-3.223c8.795 0 17.23 1.57 25.038 4.44l-6.978 6.97c-5.73-1.688-11.788-2.61-18.06-2.61-6.298 0-12.38.928-18.13 2.632l-6.974-6.965c7.83-2.885 16.285-4.467 25.105-4.467zm27.062 141.68l3.162 3.157-30.35 30.313-30.093-30.053 3.35-3.343c8.34 3.243 17.396 5.043 26.87 5.043 9.547 0 18.668-1.827 27.062-5.118zm-27.06 3.5c-9.02 0-17.65-1.66-25.625-4.67l6.927-6.92c5.917 1.812 12.193 2.794 18.697 2.794 6.58 0 12.926-1 18.903-2.853l6.91 6.903c-8.025 3.058-16.723 4.747-25.812 4.747zm59.71-90.153l-7.272 7.263c-.956-4.863-2.578-9.484-4.762-13.778l6.502-6.494c2.313 4.075 4.18 8.432 5.532 13.01zm-4.348-14.19l6.423-6.416c2.427 3.9 4.487 8.048 6.147 12.395l-6.913 6.903c-1.408-4.534-3.323-8.843-5.656-12.884zm-2.576 23.39l7.43-7.422c1.328 5.044 2.04 10.332 2.04 15.786 0 5.377-.69 10.597-1.98 15.575l-7.45-7.44c.41-2.654.62-5.37.62-8.136 0-2.845-.23-5.638-.66-8.365zm-115.046 8.364c0-5.7.79-11.22 2.234-16.47l7.37 7.362c-.512 2.963-.793 6-.793 9.108 0 3.468.344 6.854.978 10.14l-7.284 7.275c-1.62-5.53-2.504-11.37-2.504-17.416zm-10.426 0c0-8.69 1.54-17.03 4.36-24.76l6.99 6.984c-1.642 5.648-2.54 11.607-2.54 17.776 0 6.513.987 12.8 2.812 18.722l-6.925 6.917c-3.026-7.978-4.697-16.616-4.697-25.64zm1.258-30.142l7.326-7.316c-1.842 3.13-3.457 6.407-4.83 9.81l-2.496-2.494zm1.848 4.13c-3.046 8.1-4.724 16.862-4.724 26.012 0 9.48 1.81 18.54 5.068 26.883l-3.335 3.333-29.646-29.61 29.647-29.606 2.992 2.99zm143.383-24.16l9.278 9.267-8.89 8.877-9.277-9.266 8.89-8.877zm21.45-2.892l-11.028 11.017-10.422-10.408-10.033 10.02-10.643-10.63c-1.976-.74-3.4-2.032-4.862-3.282l-6.348-6.34 10.423-10.41-10.033-10.017 10.64-10.627L147.585.563l-52.997 52.93 10.033 10.02-10.64 10.626 11.03 11.016-6.344 6.336c-3.954 3.468-7.545 7.335-10.69 11.56l-1.886 1.883-10.64-10.63-11.032 11.018-10.422-10.408L1 147.84l52.996 52.93 11.032-11.016 10.42 10.408 10.034-10.02 10.642 10.627 9.355 9.338-10.713 10.697 9.646 9.634-9.646 9.633L147.764 293l52.995-52.927-9.646-9.634 9.645-9.635-10.972-10.957 7.338-7.33c1.077-.964 2.13-1.95 3.15-2.975l10.518-9.537 10.64 10.628 11.03-11.016 10.422 10.41 52.997-52.93-52.997-52.928z" transform="translate(-1)" fill="url(#a)" fill-rule="evenodd"/></svg>