<?xml version="1.0" encoding="UTF-8" standalone="no"?>
<svg width="295px" height="293px" viewBox="0 0 295 293" version="1.1" xmlns="http://www.w3.org/2000/svg" xmlns:xlink="http://www.w3.org/1999/xlink" xmlns:sketch="http://www.bohemiancoding.com/sketch/ns">
    <!-- Generator: Sketch 3.4.4 (17249) - http://www.bohemiancoding.com/sketch -->
    <title>Page 1</title>
    <desc>Created with Sketch.</desc>
    <defs>
        <linearGradient x1="65.8794488%" y1="0%" x2="-0.705023872%" y2="106.382712%" id="linearGradient-1">
            <stop stop-color="#FFA900" offset="0%"></stop>
            <stop stop-color="#2CF3CC" offset="54.8978071%"></stop>
            <stop stop-color="#10416F" offset="100%"></stop>
        </linearGradient>
    </defs>
    <g id="FINAL" stroke="none" stroke-width="1" fill="none" fill-rule="evenodd" sketch:type="MSPage">
        <g id="Desktop-HD-Copy-13" sketch:type="MSArtboardGroup" transform="translate(-888.000000, -168.000000)" fill="url(#linearGradient-1)">
            <g id="Page-1" sketch:type="MSLayerGroup" transform="translate(887.000000, 168.000000)">
                <path d="M233.608446,188.476215 L274.430566,147.705523 L233.000271,106.329062 L242.886348,96.4542154 L293.596162,147.098138 L242.886348,197.742062 L233.608446,188.476215 Z M222.967003,177.8486 L253.755856,147.098138 L222.967003,116.349292 L231.856708,107.471138 L272.14344,147.705523 L232.464883,187.334138 L222.967003,177.8486 Z M221.435244,198.349446 L211.937364,188.863908 L221.82344,178.990677 L231.32132,188.476215 L221.435244,198.349446 Z M210.217976,187.148369 C212.852861,183.042062 215.09308,178.662754 216.886872,174.060523 L220.679878,177.8486 L210.793801,187.721831 L210.217976,187.148369 Z M207.757779,190.752292 C208.289932,190.022138 208.81885,189.290369 209.325123,188.540831 L209.648621,188.863908 L207.757779,190.752292 Z M200.249408,197.233215 L194.023703,191.0156 C196.925473,187.947985 199.528009,184.599292 201.782785,181.008292 L208.154063,187.371292 C205.808708,190.8896 203.156031,194.181754 200.249408,197.233215 L200.249408,197.233215 Z M196.009976,201.3476 C193.40097,203.676985 190.622129,205.8206 187.696096,207.759062 L181.324817,201.394446 C185.260162,198.943908 188.909211,196.0766 192.213736,192.855523 L198.363419,198.997215 L196.009976,201.3476 Z M198.47179,220.804908 L189.970282,229.296985 L180.140817,219.480292 L188.643943,210.989831 L198.47179,220.804908 Z M198.47179,240.073215 L147.763593,290.715523 L97.0537792,240.073215 L105.556905,231.581138 L147.763593,273.732985 L189.970282,231.581138 L198.47179,240.073215 Z M97.0537792,220.804908 L106.622828,211.249908 L115.124337,219.740369 L105.556905,229.296985 L97.0537792,220.804908 Z M97.3336044,199.5626 L103.559309,193.343369 C106.773255,196.409369 110.300992,199.149062 114.09885,201.499446 L107.725954,207.862446 C104.00897,205.413523 100.532992,202.631831 97.3336044,199.5626 L97.3336044,199.5626 Z M95.5527519,197.800215 C92.6234842,194.790754 89.9449268,191.537369 87.5672219,188.059446 L93.9287956,181.707754 C96.2191563,185.255138 98.8508066,188.561831 101.780074,191.5826 L95.5527519,197.800215 Z M80.2901508,174.5096 L87.1369705,167.671677 C88.6493202,172.123677 90.624271,176.364062 93.0343257,180.315292 L86.6614295,186.679908 C84.172118,182.854677 82.0321836,178.783908 80.2901508,174.5096 L80.2901508,174.5096 Z M85.482282,187.857523 L76.2043803,178.591677 L79.0446863,175.755062 C80.8206863,180.001908 82.9897355,184.041985 85.4919869,187.847831 L85.482282,187.857523 Z M75.4490142,197.877754 L66.1711126,188.611908 L75.0608175,179.733754 L84.3387191,188.9996 L75.4490142,197.877754 Z M24.7392,147.233831 L64.4177574,107.606831 L73.9156372,117.092369 L43.1267847,147.841215 L73.9156372,178.591677 L65.0275497,187.469831 L24.7392,147.233831 Z M53.9962929,198.485138 L3.28647869,147.841215 L53.9962929,97.1989077 L63.2741945,106.464754 L22.4520743,147.233831 L63.8839869,188.611908 L53.9962929,198.485138 Z M75.4490142,96.5899077 L84.946894,106.077062 L75.0608175,115.950292 L65.5613202,106.464754 L75.4490142,96.5899077 Z M86.6614295,107.789369 L93.0343257,114.152369 C90.4609049,118.373369 88.3743475,122.919062 86.8296481,127.703831 L79.9456262,120.830369 C81.7491235,116.237831 84.0038995,111.873062 86.6614295,107.789369 L86.6614295,107.789369 Z M89.210588,104.103062 L96.1237246,97.1989077 L101.799484,102.865677 C98.862129,105.891292 96.2240087,109.206062 93.9287956,112.761523 L87.5672219,106.408215 C88.1009923,105.6296 88.6477027,104.860677 89.210588,104.103062 L89.210588,104.103062 Z M99.7808612,92.6612923 C102.056664,90.6695231 104.445692,88.8021385 106.957648,87.1027538 L113.327309,93.4641385 C109.600621,95.8436 106.134348,98.5929846 102.986719,101.670292 L96.8742383,95.5657538 L99.7808612,92.6612923 Z M96.2660634,74.1392923 L105.763943,64.6537538 L115.65002,74.5286 L106.15214,84.0141385 L96.2660634,74.1392923 Z M96.8742383,53.4930615 L147.584052,2.84913846 L198.293867,53.4930615 L188.795987,62.9786 L146.97426,21.2128308 L105.763943,62.3696 L96.8742383,53.4930615 Z M197.685692,74.1392923 L188.406173,83.4067538 L179.518085,74.5286 L188.795987,65.2627538 L197.685692,74.1392923 Z M194.782304,92.0571385 L198.293867,95.5657538 L192.226675,101.623446 C188.865539,98.3458308 185.150173,95.4332923 181.135572,92.9520615 L187.508468,86.5890615 C190.049539,88.2609846 192.475768,90.0896 194.782304,92.0571385 L194.782304,92.0571385 Z M208.524468,107.671446 L202.151572,114.036062 C199.781954,110.168831 197.003113,106.582677 193.891069,103.314754 L200.116774,97.0971385 C203.23367,100.348908 206.049714,103.8866 208.524468,107.671446 L208.524468,107.671446 Z M210.256796,105.941369 L209.69391,106.503523 C208.849583,105.225754 207.977757,103.967369 207.057408,102.744523 L210.256796,105.941369 Z M211.401976,107.083446 L220.679878,116.349292 L216.81085,120.213292 C215.11249,115.896985 213.02755,111.776138 210.58838,107.894369 L211.401976,107.083446 Z M221.931812,147.233831 C221.931812,138.324985 220.348293,129.777985 217.452992,121.856138 L221.82344,117.491369 L251.46873,147.098138 L221.82344,176.706523 L217.522544,172.411215 C220.370938,164.545908 221.931812,156.069985 221.931812,147.233831 L221.931812,147.233831 Z M209.218369,164.116215 C210.698369,158.735369 211.505495,153.078292 211.505495,147.233831 C211.505495,141.313446 210.675725,135.585292 209.158522,130.139831 L216.178413,123.129062 C218.847266,130.676138 220.314326,138.785369 220.314326,147.233831 C220.314326,155.607985 218.871528,163.646138 216.246348,171.136677 L209.218369,164.116215 Z M208.710479,165.894754 L215.641408,172.816677 C213.888052,177.4496 211.668861,181.853138 209.048533,185.980446 L202.64814,179.588369 C205.177889,175.315677 207.227244,170.7296 208.710479,165.894754 L208.710479,165.894754 Z M194.987725,171.937908 C197.368664,167.401908 199.117167,162.487908 200.111921,157.305754 L207.401932,164.587908 C205.978544,169.467985 203.974479,174.099292 201.46414,178.405908 L194.987725,171.937908 Z M186.652817,183.654292 C189.549736,180.562446 192.079484,177.126523 194.180599,173.415985 L200.611725,179.838754 C198.377976,183.447523 195.78191,186.804292 192.88014,189.873523 L186.652817,183.654292 Z M173.717779,193.798908 C177.78414,191.516369 181.522151,188.720138 184.844468,185.495831 L191.070173,191.715062 C187.764031,194.936138 184.106894,197.796985 180.153757,200.226523 L173.717779,193.798908 Z M175.084555,214.4306 L168.244205,207.599138 C172.329976,206.203446 176.229736,204.408754 179.898195,202.253831 L186.30344,208.652369 C182.756293,210.888062 179.008577,212.826523 175.084555,214.4306 L175.084555,214.4306 Z M176.331637,215.674446 C180.228162,214.039677 183.946763,212.067292 187.472883,209.820292 L187.50038,209.847754 L178.997255,218.338215 L176.331637,215.674446 Z M147.503178,252.077138 L178.997255,220.622369 L188.826719,230.439062 L147.763593,271.448831 L106.700468,230.439062 L116.267899,220.882446 L147.503178,252.077138 Z M119.121145,215.750369 L116.267899,218.598292 L107.766391,210.107831 L107.949167,209.923677 C111.484992,212.164215 115.214916,214.123677 119.121145,215.750369 L119.121145,215.750369 Z M115.531943,202.350754 C119.210107,204.495985 123.119572,206.280985 127.215047,207.665369 L120.36661,214.504908 C116.434501,212.910523 112.675462,210.983369 109.120227,208.755754 L115.531943,202.350754 Z M110.928577,185.983677 C114.168402,189.046446 117.786719,191.711831 121.712358,193.894215 L115.268293,200.329908 C111.45426,198.003754 107.920052,195.267292 104.702872,192.202908 L110.928577,185.983677 Z M101.500249,174.144523 C103.648271,177.804985 106.220074,181.184369 109.149342,184.222908 L102.923637,190.440523 C99.9943694,187.418138 97.3708066,184.101754 95.0982383,180.538215 L101.500249,174.144523 Z M95.5656918,159.253908 C96.6655825,164.004754 98.386588,168.519754 100.664009,172.695523 L94.2167082,179.134446 C91.8260634,175.155754 89.8721399,170.887908 88.4131672,166.398754 L95.5656918,159.253908 Z M100.665626,121.773754 C98.2280743,126.237062 96.4181071,131.086446 95.3376262,136.200754 L88.1139322,128.986446 C89.6004022,124.159677 91.6626973,119.583292 94.2167082,115.333215 L100.665626,121.773754 Z M109.168752,110.225369 C106.231397,113.268754 103.653123,116.656215 101.500249,120.323138 L95.0982383,113.929446 C97.375659,110.359446 100.005692,107.034985 102.943047,104.007754 L109.168752,110.225369 Z M120.908468,101.035446 C117.063703,103.263062 113.51979,105.949446 110.355987,109.029985 L104.130282,102.810754 C107.279528,99.7350615 110.755506,96.9921385 114.496752,94.6320615 L120.908468,101.035446 Z M120.885823,79.7576 L127.756905,86.6197538 C123.164861,88.1252923 118.797648,90.1267538 114.728052,92.5789077 L108.348686,86.2062154 C112.285648,83.6700615 116.47979,81.5054462 120.885823,79.7576 L120.885823,79.7576 Z M119.640358,78.5121385 C115.506063,80.1986 111.561014,82.2469077 107.835943,84.6166769 L116.7952,75.6706769 L119.640358,78.5121385 Z M147.584052,42.6376769 L116.7952,73.3865231 L106.907506,63.5116769 L146.97426,23.4969846 L187.652424,64.1206769 L178.374522,73.3865231 L147.584052,42.6376769 Z M175.555244,78.4862923 L178.374522,75.6706769 L187.165561,84.4502923 C183.497102,82.1386769 179.616752,80.1388308 175.555244,78.4862923 L175.555244,78.4862923 Z M179.700861,92.1007538 C175.848009,89.8569846 171.742828,88.0025231 167.435462,86.5955231 L174.308162,79.7317538 C178.442457,81.3665231 182.390741,83.3647538 186.114195,85.6957538 L179.700861,92.1007538 Z M184.857408,108.984754 C181.478479,105.702292 177.670916,102.860831 173.520446,100.557292 L179.966129,94.1199846 C183.996905,96.5786 187.720358,99.4879077 191.083113,102.765523 L184.857408,108.984754 Z M194.525123,121.650985 C192.330195,117.652908 189.628992,113.971446 186.521801,110.674446 L192.747506,104.456831 C195.85955,107.727985 198.627069,111.327062 200.974042,115.212062 L194.525123,121.650985 Z M192.178151,147.098138 L198.982916,140.302215 C199.288621,142.571831 199.461692,144.883446 199.461692,147.233831 C199.461692,149.503446 199.298326,151.732677 199.013648,153.926369 L192.178151,147.098138 Z M187.176883,164.137215 C189.33461,159.123062 190.555812,153.619446 190.636686,147.842831 L198.717648,155.914908 C197.826413,161.166523 196.139375,166.148369 193.785932,170.737677 L187.176883,164.137215 Z M179.285167,176.2946 C182.17238,173.159138 184.603462,169.5956 186.465189,165.7106 L192.996599,172.233523 C190.926216,175.966677 188.404555,179.415523 185.510872,182.513831 L179.285167,176.2946 Z M165.991047,186.0806 C170.249889,184.0646 174.120533,181.368523 177.4752,178.136138 L183.700905,184.353754 C180.375353,187.579677 176.624402,190.367831 172.533779,192.616446 L165.991047,186.0806 Z M159.828424,199.194292 C164.192402,198.171754 168.35096,196.617754 172.231309,194.598523 L178.714195,201.072985 C175.019856,203.208523 171.089364,204.975754 166.968009,206.3246 L159.828424,199.194292 Z M123.203681,194.688985 C127.100205,196.696908 131.271703,198.237985 135.648621,199.244369 L128.491244,206.392446 C124.360184,205.054908 120.419987,203.295754 116.715943,201.168292 L123.203681,194.688985 Z M118.297845,178.623985 C121.581342,181.685138 125.338763,184.239062 129.453648,186.162985 L122.896358,192.711754 C118.946457,190.561677 115.316817,187.904369 112.07214,184.8416 L118.297845,178.623985 Z M109.181692,166.474677 C111.108118,170.298292 113.587725,173.793985 116.51861,176.863215 L110.292905,183.080831 C107.363637,180.039062 104.804774,176.643523 102.684249,172.962062 L109.181692,166.474677 Z M104.715812,150.115677 C105.066807,155.365677 106.365648,160.357215 108.442501,164.928754 L101.864184,171.496908 C99.6126426,167.279138 97.9272219,162.715677 96.9130579,157.908292 L104.715812,150.115677 Z M104.621998,147.758831 C104.623615,147.812138 104.625233,147.867062 104.62685,147.920369 L96.5555934,155.981138 C96.0671126,153.136446 95.8002273,150.217446 95.8002273,147.233831 C95.8002273,144.615292 95.9991781,142.040369 96.3776699,139.525215 L104.621998,147.758831 Z M108.442501,129.540523 C106.213604,134.444831 104.879178,139.833754 104.65273,145.505369 L96.7173421,137.580292 C97.7007738,132.398138 99.454129,127.485754 101.864184,122.970754 L108.442501,129.540523 Z M116.53802,117.585062 C113.599047,120.657523 111.111353,124.161292 109.181692,127.9946 L102.684249,121.5056 C104.809626,117.817677 107.37496,114.414062 110.310697,111.367446 L116.53802,117.585062 Z M128.597998,108.714985 C124.578544,110.703523 120.916555,113.302677 117.725255,116.389677 L111.49955,110.170446 C114.666588,107.091523 118.225058,104.414831 122.092468,102.217908 L128.597998,108.714985 Z M136.237386,95.0876 C131.33155,96.1569846 126.671572,97.8919077 122.36744,100.208369 L115.912052,93.7613692 C120.009145,91.3286 124.402238,89.3432923 129.033102,87.8926769 L136.237386,95.0876 Z M172.027506,99.7641385 C167.943353,97.6625231 163.558348,96.0665231 158.948511,95.0714462 L166.159266,87.8700615 C170.505451,89.2253692 174.636511,91.0588308 178.516861,93.2832154 L172.027506,99.7641385 Z M177.48814,116.344446 C174.075244,113.052292 170.123725,110.319062 165.777539,108.290138 L172.336446,101.739754 C176.511178,104.009369 180.331681,106.844369 183.713845,110.125215 L177.48814,116.344446 Z M186.759572,129.408062 C184.834763,125.212908 182.258107,121.376369 179.152533,118.034138 L185.378238,111.816523 C188.48543,115.118369 191.168839,118.819215 193.331419,122.844754 L186.759572,129.408062 Z M187.453473,130.999215 L194.107812,124.353523 C196.262304,128.702138 197.816708,133.394831 198.677211,138.323369 L190.630216,146.359908 C190.520227,140.935446 189.404162,135.756523 187.453473,130.999215 L187.453473,130.999215 Z M178.998872,155.969831 C179.776883,153.184908 180.224927,150.264292 180.224927,147.233831 C180.224927,144.474754 179.841583,141.809369 179.191353,139.248985 L186.206391,132.244677 C188.024446,136.895369 189.033757,141.948292 189.033757,147.233831 C189.033757,152.777831 187.929014,158.0666 185.939506,162.901446 L178.998872,155.969831 Z M171.88355,168.904215 C174.773998,165.681523 177.030391,161.895062 178.458632,157.716062 L185.242369,164.489369 C183.430785,168.411523 181.030435,172.007369 178.141604,175.152523 L171.88355,168.904215 Z M157.976402,178.077985 C162.553889,176.541754 166.672009,174.021754 170.092992,170.763523 L176.331637,176.994062 C172.970501,180.229677 169.065889,182.899908 164.768227,184.860985 L157.976402,178.077985 Z M150.700949,190.078677 C155.533998,189.736215 160.151921,188.603831 164.415615,186.792985 L171.031134,193.398292 C167.105495,195.391677 162.898413,196.903677 158.481058,197.847062 L150.700949,190.078677 Z M137.532992,199.644985 C140.805167,200.271754 144.177626,200.6126 147.63096,200.6126 C151.161932,200.6126 154.610413,200.260446 157.95214,199.6046 L165.224358,206.867369 C159.640796,208.511831 153.740205,209.4116 147.63096,209.4116 C141.596118,209.4116 135.766697,208.532831 130.242981,206.925523 L137.532992,199.644985 Z M131.032315,186.870523 C135.317036,188.666831 139.954369,189.781446 144.806828,190.096446 L136.995987,197.897138 C132.564074,196.971523 128.344052,195.469215 124.405473,193.488754 L131.032315,186.870523 Z M125.692992,171.240062 C129.058981,174.309292 133.052555,176.695215 137.477998,178.149062 L130.67485,184.943369 C126.522763,183.074369 122.732992,180.544677 119.441408,177.483523 L125.692992,171.240062 Z M117.11061,158.556062 C118.639134,162.652677 120.961845,166.356754 123.90567,169.485754 L117.662173,175.721138 C114.731287,172.647062 112.263003,169.130369 110.381867,165.274446 L117.11061,158.556062 Z M123.923462,124.962523 C120.97155,128.096369 118.642369,131.806908 117.11061,135.913215 L110.381867,129.193215 C112.266238,125.329215 114.74261,121.806062 117.681583,118.727138 L123.923462,124.962523 Z M136.552796,116.659446 C132.242195,118.221523 128.353757,120.651062 125.107462,123.760677 L118.868817,117.531754 C122.06497,114.443138 125.749604,111.858523 129.803025,109.918446 L136.552796,116.659446 Z M145.484555,104.322754 C140.048184,104.590908 134.881932,105.879985 130.155637,107.986446 L123.569233,101.406985 C127.921889,99.1196 132.633626,97.4282923 137.602544,96.4509846 L145.484555,104.322754 Z M157.033408,94.6999077 C153.979593,94.1555231 150.840052,93.8550615 147.63096,93.8550615 C144.394369,93.8550615 141.228949,94.1603692 138.149255,94.7128308 L130.809102,87.3822154 C136.162981,85.8782923 141.801539,85.0576769 147.63096,85.0576769 C153.434501,85.0576769 159.047178,85.8718308 164.380031,87.3612154 L157.033408,94.6999077 Z M164.195637,107.585831 C159.694173,105.702292 154.807746,104.561831 149.688402,104.321138 L157.580118,96.4380615 C162.249801,97.3475231 166.693036,98.8886 170.825714,100.964369 L164.195637,107.585831 Z M170.105932,123.717062 C166.625102,120.399062 162.42449,117.837062 157.749954,116.307292 L164.554719,109.511369 C168.94296,111.482138 172.925211,114.192754 176.344577,117.486523 L170.105932,123.717062 Z M171.755768,125.421292 L178.00897,119.176215 C181.114544,122.528138 183.668555,126.393754 185.536752,130.629292 L178.712577,137.442985 C177.282719,132.926369 174.867812,128.852369 171.755768,125.421292 L171.755768,125.421292 Z M170.723812,147.705523 L177.865014,140.5736 C178.338938,142.722062 178.60744,144.946446 178.60744,147.233831 C178.60744,149.7926 178.261298,152.265754 177.670916,154.645215 L170.723812,147.705523 Z M164.514282,161.544523 C167.448402,158.098908 169.334391,153.750292 169.709648,148.976831 L177.200227,156.457677 C175.872271,160.696446 173.630435,164.523292 170.741604,167.763754 L164.514282,161.544523 Z M149.182129,169.295138 C154.40014,168.931677 159.11673,166.763831 162.723725,163.403831 L168.94943,169.621446 C165.515506,172.886138 161.350479,175.386754 156.708293,176.809908 L149.182129,169.295138 Z M133.06226,163.880369 C136.656315,167.020677 141.264533,169.012446 146.330501,169.308062 L138.763899,176.864831 C134.270522,175.520831 130.221954,173.172062 126.836555,170.097985 L133.06226,163.880369 Z M125.657408,150.018754 C126.244555,154.654908 128.269648,158.837138 131.274938,162.126062 L125.047615,168.343677 C122.100555,165.200138 119.80696,161.452446 118.369014,157.297677 L125.657408,150.018754 Z M125.495659,146.571523 C125.489189,146.794446 125.463309,147.010908 125.463309,147.233831 C125.463309,147.458369 125.489189,147.674831 125.495659,147.896138 L117.823921,155.557908 C117.081495,152.905446 116.652861,150.120523 116.652861,147.233831 C116.652861,144.347138 117.081495,141.563831 117.823921,138.911369 L125.495659,146.571523 Z M131.294348,132.322215 C128.279353,135.612754 126.246173,139.804677 125.657408,144.448908 L118.369014,137.169985 C119.810195,133.007138 122.11026,129.251369 125.067025,126.102985 L131.294348,132.322215 Z M145.148118,125.2436 C140.268162,125.7896 135.876686,127.929985 132.47673,131.120369 L126.249408,124.902754 C129.51026,121.788292 133.442369,119.379754 137.8112,117.916215 L145.148118,125.2436 Z M162.736664,131.076754 C159.061736,127.647292 154.228686,125.460062 148.887746,125.157985 L156.460817,117.594754 C161.206522,119.0066 165.466981,121.531446 168.962369,124.857523 L162.736664,131.076754 Z M164.386501,132.7826 L170.612205,126.563369 C173.730719,130.018677 176.084162,134.165369 177.397561,138.757908 L169.754938,146.388985 C169.557604,141.197138 167.574566,136.464062 164.386501,132.7826 L164.386501,132.7826 Z M157.099725,154.137985 C158.521495,152.199523 159.372293,149.816831 159.372293,147.233831 C159.372293,144.582985 158.474588,142.142138 156.983266,140.1746 L163.242938,133.923062 C166.314544,137.510831 168.181123,142.155062 168.181123,147.233831 C168.181123,152.244754 166.367921,156.835677 163.372337,160.402446 L157.099725,154.137985 Z M150.050719,147.098138 L155.829998,141.327985 C157.035025,142.991831 157.754807,145.028831 157.754807,147.233831 C157.754807,149.370985 157.081932,151.351446 155.944839,152.986215 L150.050719,147.098138 Z M148.130763,148.831446 L154.210894,154.902062 C152.439746,156.420523 150.142916,157.344523 147.63096,157.344523 C145.374566,157.344523 143.294479,156.594985 141.610675,155.343062 L148.130763,148.831446 Z M140.989561,139.622138 C142.768796,138.071369 145.088271,137.123138 147.63096,137.123138 C150.149386,137.123138 152.451069,138.051985 154.223834,139.578523 L147.689189,146.104677 L147.503178,145.918908 L147.398042,146.022292 L140.989561,139.622138 Z M146.205954,147.214446 L139.791003,153.621062 C138.36438,151.878062 137.507113,149.655292 137.507113,147.233831 C137.507113,144.802677 138.37085,142.570215 139.808796,140.823985 L146.205954,147.214446 Z M139.575878,117.394446 C142.149298,116.701446 144.840796,116.2976 147.63096,116.2976 C150.045867,116.2976 152.384752,116.601292 154.642763,117.126292 L146.97426,124.783215 L139.575878,117.394446 Z M146.97426,127.067369 L147.317167,126.726523 C147.422304,126.724908 147.525823,126.710369 147.63096,126.710369 C153.023659,126.710369 157.923025,128.811985 161.593102,132.218831 L155.367397,138.436446 C153.298632,136.619138 150.595812,135.507754 147.63096,135.507754 C144.641845,135.507754 141.919615,136.636908 139.845998,138.480062 L133.618675,132.262446 C137.073626,129.036523 141.631703,126.994677 146.66532,126.758831 L146.97426,127.067369 Z M127.145495,145.935062 C127.447965,141.147062 129.395419,136.808138 132.436293,133.462677 L138.663615,139.681908 C136.93614,141.723754 135.889626,144.358446 135.889626,147.233831 C135.889626,150.101138 136.928052,152.726138 138.644205,154.766369 L132.416883,160.983985 C129.387331,157.641754 127.447965,153.310908 127.145495,148.5326 L128.445954,147.233831 L127.145495,145.935062 Z M147.763593,170.160985 L154.888621,177.278369 C152.556205,177.840523 150.134828,178.171677 147.63096,178.171677 C145.203113,178.171677 142.851287,177.863138 140.583572,177.333292 L147.763593,170.160985 Z M147.63096,167.757292 C142.498675,167.757292 137.8112,165.855985 134.205823,162.738292 L140.45579,156.496446 C142.442063,158.034292 144.92814,158.959908 147.63096,158.959908 C150.589342,158.959908 153.287309,157.853369 155.354457,156.044138 L161.580162,162.261754 C157.911703,165.660523 153.017189,167.757292 147.63096,167.757292 L147.63096,167.757292 Z M139.54191,96.1052923 C142.178413,95.6901385 144.879615,95.4704462 147.63096,95.4704462 C150.354807,95.4704462 153.028511,95.6836769 155.640752,96.0907538 L147.584052,104.136985 L139.54191,96.1052923 Z M147.584052,106.421138 L148.109736,105.896138 C153.345539,105.955908 158.348424,106.992985 162.950173,108.829677 L155.969102,115.801677 C153.301867,115.094138 150.516555,114.682215 147.63096,114.682215 C144.36849,114.682215 141.224096,115.174908 138.249539,116.069831 L131.378457,109.207677 C136.205036,107.1416 141.503921,105.973677 147.061604,105.897754 L147.584052,106.421138 Z M156.559484,198.213754 C153.656096,198.719369 150.676686,198.997215 147.63096,198.997215 C144.662872,198.997215 141.759484,198.733908 138.927266,198.254138 L147.00661,190.183677 C147.215266,190.186908 147.420686,190.199831 147.63096,190.199831 C147.92696,190.199831 148.218107,190.183677 148.51249,190.177215 L156.559484,198.213754 Z M147.763593,187.143523 L146.353145,188.552138 C141.39555,188.400292 136.654697,187.377754 132.279397,185.625062 L139.255615,178.657908 C141.934173,179.370292 144.730807,179.787062 147.63096,179.787062 C150.605517,179.787062 153.474938,179.352523 156.21496,178.602985 L163.171768,185.550754 C158.819113,187.317985 154.102522,188.364754 149.165954,188.545677 L147.763593,187.143523 Z M106.231397,147.080369 C106.252424,141.284369 107.478479,135.767831 109.663703,130.760138 L116.497583,137.586754 C115.548118,140.6366 115.035375,143.877062 115.035375,147.233831 C115.035375,150.592215 115.548118,153.832677 116.4992,156.882523 L109.663703,163.707523 C107.627287,159.043908 106.433583,153.936062 106.260511,148.572985 L106.993233,147.841215 L106.231397,147.080369 Z M121.278872,77.8659846 L117.938763,74.5286 L147.584052,44.9218308 L177.23096,74.5286 L173.915113,77.8401385 C165.738719,74.7402154 156.882981,73.0279077 147.63096,73.0279077 C138.353058,73.0279077 129.474675,74.7499077 121.278872,77.8659846 L121.278872,77.8659846 Z M147.63096,74.6432923 C156.425233,74.6432923 164.858807,76.2134462 172.668031,79.0839846 L165.690195,86.0543692 C159.95944,84.3646769 153.901954,83.4422923 147.63096,83.4422923 C141.332468,83.4422923 135.250719,84.3711385 129.498938,86.0753692 L122.525954,79.1098308 C130.354588,76.2247538 138.810807,74.6432923 147.63096,74.6432923 L147.63096,74.6432923 Z M174.691506,216.322215 L177.853692,219.480292 L147.503178,249.792985 L117.411462,219.740369 L120.759659,216.396523 C129.099419,219.640215 138.155725,221.439754 147.63096,221.439754 C157.177364,221.439754 166.298369,219.612754 174.691506,216.322215 L174.691506,216.322215 Z M147.63096,219.824369 C138.613473,219.824369 129.980949,218.163754 122.006741,215.152677 L128.934435,208.232369 C134.8512,210.044831 141.127047,211.026985 147.63096,211.026985 C154.209277,211.026985 160.556293,210.027062 166.532905,208.174215 L173.444424,215.076754 C165.418457,218.134677 156.719615,219.824369 147.63096,219.824369 L147.63096,219.824369 Z M207.342085,129.669754 L200.069867,136.932523 C199.113932,132.070215 197.491593,127.4486 195.307987,123.154908 L201.810282,116.661062 C204.123287,120.735062 205.989867,125.091754 207.342085,129.669754 L207.342085,129.669754 Z M202.994282,115.4786 L209.41732,109.063908 C211.84355,112.965062 213.904227,117.111754 215.563768,121.458754 L208.650632,128.362908 C207.241801,123.828523 205.326697,119.520292 202.994282,115.4786 L202.994282,115.4786 Z M200.417626,138.869369 L207.848358,131.448292 C209.176315,136.491523 209.888009,141.780292 209.888009,147.233831 C209.888009,152.611446 209.19896,157.830754 207.908205,162.809369 L200.458063,155.368908 C200.867287,152.716446 201.079178,149.999369 201.079178,147.233831 C201.079178,144.389138 200.849495,141.596138 200.417626,138.869369 L200.417626,138.869369 Z M85.3722929,147.233831 C85.3722929,141.533138 86.1616262,136.014985 87.6060415,130.764985 L94.9769268,138.126292 C94.4641836,141.088908 94.182741,144.127446 94.182741,147.233831 C94.182741,150.702062 94.5272656,154.087908 95.1613202,157.3736 L87.8761617,164.649292 C86.2570579,159.119831 85.3722929,153.280215 85.3722929,147.233831 L85.3722929,147.233831 Z M74.945976,147.233831 C74.945976,138.543062 76.4874404,130.204446 79.3051016,122.474831 L86.2974951,129.458138 C84.654129,135.105523 83.7548066,141.064677 83.7548066,147.233831 C83.7548066,153.747062 84.7430907,160.032523 86.5676153,165.956138 L79.6431563,172.873215 C76.6168393,164.894831 74.945976,156.257369 74.945976,147.233831 L74.945976,147.233831 Z M76.2043803,117.092369 L83.529976,109.776292 C81.687659,112.906908 80.0734077,116.182908 78.7001617,119.584908 L76.2043803,117.092369 Z M78.0515497,121.222908 C75.005823,129.322446 73.3284896,138.084292 73.3284896,147.233831 C73.3284896,156.714523 75.1368393,165.775215 78.3960743,174.117062 L75.0608175,177.4496 L45.4139104,147.841215 L75.0608175,118.234446 L78.0515497,121.222908 Z M221.435244,97.0632154 L230.713145,106.329062 L221.82344,115.207215 L212.545539,105.941369 L221.435244,97.0632154 Z M242.886348,94.1700615 L231.856708,105.186985 L221.435244,94.7790615 L211.401976,104.799292 L200.758916,94.1700615 C198.783965,93.4286 197.35896,92.1379077 195.898369,90.8876 L189.549736,84.5488308 L199.972817,74.1392923 L189.93955,64.1206769 L200.580992,53.4930615 L147.584052,0.563369231 L94.5871126,53.4930615 L104.62038,63.5116769 L93.9789377,74.1392923 L105.008577,85.1562154 L98.6664131,91.4917538 C94.711659,94.9599846 91.1208393,98.8272154 87.9764459,103.051446 L86.0904568,104.934985 L75.4490142,94.3057538 L64.4177574,105.322677 L53.9962929,94.9147538 L0.999353005,147.841215 L53.9962929,200.769292 L65.0275497,189.753985 L75.4490142,200.161908 L85.482282,190.141677 L96.1237246,200.769292 L105.479266,210.107831 L94.7666536,220.804908 L104.413342,230.439062 L94.7666536,240.073215 L147.763593,292.999677 L200.758916,240.073215 L191.113845,230.439062 L200.758916,220.804908 L189.787506,209.847754 L197.126042,202.517138 C198.203287,201.554369 199.256271,200.567369 200.275287,199.543215 L210.793801,190.005985 L221.435244,200.6336 L232.464883,189.618292 L242.886348,200.027831 L295.883287,147.098138 L242.886348,94.1700615 Z" id="Fill-1" sketch:type="MSShapeGroup"></path>
            </g>
        </g>
    </g>
</svg>
