<?xml version="1.0" encoding="UTF-8" standalone="no"?>
<svg width="46px" height="46px" viewBox="0 0 46 46" version="1.1" xmlns="http://www.w3.org/2000/svg" xmlns:xlink="http://www.w3.org/1999/xlink" xmlns:sketch="http://www.bohemiancoding.com/sketch/ns">
    <!-- Generator: Sketch 3.4.4 (17249) - http://www.bohemiancoding.com/sketch -->
    <title>Page 1</title>
    <desc>Created with Sketch.</desc>
    <defs>
        <path id="path-1" d="M0,0.283666667 L45.7214444,0.283666667 L45.7214444,46 L0,46"></path>
    </defs>
    <g id="FINAL" stroke="none" stroke-width="1" fill="none" fill-rule="evenodd" sketch:type="MSPage">
        <g id="Desktop-HD-Copy-13" sketch:type="MSArtboardGroup" transform="translate(-885.000000, -619.000000)">
            <g id="Page-1" sketch:type="MSLayerGroup" transform="translate(885.000000, 619.000000)">
                <path d="M24.061237,18.711863 C21.8660148,18.711863 20.0856444,20.4913815 20.0856444,22.6874556 C20.0856444,24.8826778 21.8660148,26.6621963 24.061237,26.6621963 C26.2564593,26.6621963 28.0368296,24.8826778 28.0368296,22.6874556 C28.0368296,20.4913815 26.2564593,18.711863 24.061237,18.711863" id="Fill-1" fill="#4A4A4A" sketch:type="MSShapeGroup"></path>
                <g id="Group-5">
                    <mask id="mask-2" sketch:name="Clip 4" fill="white">
                        <use xlink:href="#path-1"></use>
                    </mask>
                    <g id="Clip-4"></g>
                    <path d="M44.0151,19.6666185 L44.0116926,23.1421741 C44.0116926,34.8065815 34.522063,44.2962111 22.8576556,44.2962111 C11.1932481,44.2962111 1.70361852,34.8065815 1.70361852,23.1421741 C1.70361852,11.4769148 11.1932481,1.98728519 22.8576556,1.98728519 C25.8178407,1.98728519 30.1869889,2.00602593 34.4266556,2.02476667 C37.9976185,2.0401 41.4765815,2.05458148 43.9469519,2.05798889 C44.0244704,13.4174333 44.0202111,16.0522111 44.0151,19.6666185 M45.6446926,1.20102593 L45.6387296,0.355137037 L44.7928407,0.355137037 C42.3139519,0.355137037 38.4312111,0.3381 34.4343222,0.321062963 C30.1912481,0.302322222 25.8195444,0.283581481 22.8576556,0.283581481 C10.2536556,0.283581481 -8.51851854e-05,10.5381741 -8.51851854e-05,23.1421741 C-8.51851854e-05,35.7453222 10.2536556,45.9999148 22.8576556,45.9999148 C35.4616556,45.9999148 45.7153963,35.7453222 45.7153963,23.1421741 L45.7188037,19.6691741 C45.7247667,15.9627667 45.7281741,13.2845444 45.6446926,1.20102593" id="Fill-3" fill="#4A4A4A" sketch:type="MSShapeGroup" mask="url(#mask-2)"></path>
                </g>
            </g>
        </g>
    </g>
</svg>